<mxfile host="app.diagrams.net" modified="2024-03-28T14:28:35.610Z" agent="Mozilla/5.0 (Windows NT 10.0; Win64; x64) AppleWebKit/537.36 (KHTML, like Gecko) Chrome/123.0.0.0 Safari/537.36" version="24.1.0" etag="9iRwkiNYwR56exPrPFwh" type="github">
  <diagram name="Page-1" id="tqNqi4lScTogWtAwdFvT">
    <mxGraphModel>
      <root>
        <mxCell id="0" />
        <mxCell id="1" parent="0" />
      </root>
    </mxGraphModel>
  </diagram>
</mxfile>
